<svg xmlns="http://www.w3.org/2000/svg" xml:space="preserve" viewBox="0 0 400 400">
    <path id="c" fill="#000" d="M200 400c110.457 0 200-89.543 200-200S310.457 0 200 0 0 89.543 0 200s89.543 200 200 200z"/>
    <path id="sf" fill="#fff" d="M34.41 234.861a3.248 3.248 0 0 0-3.254 3.256v1.785a3.248 3.248 0 0 0 3.254 3.256h321.45a3.248 3.248 0 0 0 3.253-3.256v-1.785a3.248 3.248 0 0 0-3.254-3.256zM291.186 73.994a61.792 61.792 0 0 0-3.747.008c-20.311.713-38.059 11.912-51.246 27.4-14.627 16.985-24.345 37.143-31.355 57.703-12.532-10.273-22.2-23.568-42.307-29.367-15.553-4.467-31.868-2.628-46.879 8.557-7.118 5.315-12.011 13.345-14.341 20.889-6.041 19.62 6.334 37.083 11.962 43.359l12.29 13.152c2.535 2.586 8.629 9.327 5.658 18.98-.021.068-.05.12-.07.186h29.704c2.094-3.61 3.451-7.48 4.2-11.914 2.572-15.118-4.268-26.36-16.772-40.814l-10.187-11.266c-6.177-6.177-8.294-16.686-1.91-24.758 5.393-6.818 13.067-9.723 25.656-6.31 18.36 4.972 26.544 17.717 40.195 27.998-5.636 18.488-9.325 37.048-12.652 53.705l-1.75 13.36h39.752c1.518-6.294 2.853-12.367 4.047-17.94l6.382-35.29c3.555.42 7.347.712 11.479.805 33.89.727 50.84-16.833 51.103-29.601.164-7.73-5.07-15.333-12.41-15.162-5.243.15-11.84 3.641-13.422 10.894-1.546 7.124 10.786 13.551 1.147 19.8-6.847 4.438-19.122 7.559-36.406 5.023l3.148-17.377c6.405-32.944 14.329-73.47 44.344-74.446 2.188-.114 10.196.101 10.38 5.387.05 1.767-.384 2.223-2.45 6.27-2.116 3.148-2.908 5.833-2.815 8.925.3 8.407 6.69 13.938 15.945 13.61 12.375-.406 15.938-12.454 15.739-18.653-.481-13.659-14-22.59-32.412-23.113ZM80.232 203.955c-5.635-.002-10.66 2.922-12.962 10.387-1.687 5.476-1.225 13.094 2.906 20.52h20.306c.873-2.034 2.285-3.712 3.12-5.56.877-1.851 1.29-3.233 1.554-4.046 2.372-7.751-.87-17.825-9.164-20.383-1.936-.591-3.881-.917-5.76-.918zm58.688 61.62c-4.24.063-8.48 1.1-12.322 2.913a57.824 57.824 0 0 0-12.721 7.967 81.4 81.4 0 0 0-11.795 11.79 28.855 28.855 0 0 0-2.387 3.497 6.755 6.755 0 0 0-1.125 3.692c0 1.166.596 1.683 1.657 1.683 1.126 0 2.452-.711 4.109-2.265 3.312-2.915 6.956-5.57 10.799-7.774 1.987-1.23 3.312-1.75 4.04-1.75.995 0 1.59.454 1.723 1.49.132.907-.265 2.398-1.193 4.276l-17.889 39.836a11.161 11.161 0 0 0-.132 7.902 18.07 18.07 0 0 0 4.705 7.578c2.187 2.203 4.638 3.24 7.289 3.24 3.246 0 6.824-1.168 10.535-3.629 3.644-2.397 7.486-5.633 11.46-9.585 3.844-4.016 7.753-8.55 11.663-13.409a640.064 640.064 0 0 0 11.463-14.898c.596-.842 1.193-1.166 1.922-1.166.596.065.728.648.33 1.814a290.892 290.892 0 0 1-8.281 19.239l-3.579 7.578a5.087 5.087 0 0 0-.664 2.914c0 .777.134 1.49.399 2.203.994 1.296 2.053 2.395 3.312 3.367 1.325 1.036 2.981 1.944 4.836 2.397 1.79.518 3.58.455 5.303-.13a23.597 23.597 0 0 0 8.215-2.267c9.664-4.56 18.293-10.97 25.377-18.85 1.855-2.201 2.717-4.144 2.717-5.699 0-.842-.267-1.49-.73-2.008-.53-.648-1.059-.906-1.788-.906l-.662.582a89.232 89.232 0 0 1-15.108 11.4c-2.65 1.49-4.44 2.333-5.5 2.333-.662 0-.994-.453-.994-1.295-.066-1.036.067-1.945.465-2.852l19.213-48.644c.663-1.75.464-3.562-.463-5.44a12.577 12.577 0 0 0-4.24-4.924 10.63 10.63 0 0 0-6.492-2.072c-2.187 0-4.108 1.166-5.83 3.303-4.11 5.182-7.753 10.689-11 16.389a181.26 181.26 0 0 1-13.518 18.783l-9.738 12.63c-3.114 4.21-5.964 7.515-8.416 10.235-2.517 2.656-4.372 4.016-5.697 4.016-1.26 0-1.99-.648-2.055-2.008-.265-1.425.199-3.044 1.127-4.858 4.505-9.586 8.547-18.137 12.125-25.457l9.01-19.043a6.98 6.98 0 0 0 0-5.959 16.831 16.831 0 0 0-3.975-5.7 8.165 8.165 0 0 0-5.5-2.46zm106.543.128c-3.644 0-7.023.907-10.27 2.59-6.083 3.506-11.023 8.628-14.246 14.77a17.06 17.06 0 0 0-2.185 7.902c0 .713.198 1.294.662 1.683.397.323.86.52 1.39.52.464 0 .862-.196 1.26-.455a4.61 4.61 0 0 0 .994-.842c2.451-2.85 4.836-5.181 6.889-6.865 2.12-1.684 3.912-2.527 5.303-2.527.63.023 1.216.333 1.59.841a5.767 5.767 0 0 1 1.058 2.332l7.29 24.291c.368.836.507 1.753.398 2.657a5.517 5.517 0 0 1-1.127 2.332 918.929 918.929 0 0 1-12.854 14.443 14.642 14.642 0 0 1-4.174 3.367c-1.325.648-2.585.973-3.71.973a6.07 6.07 0 0 1-3.313-.842c-.862-.518-1.59-1.101-2.055-1.75a8.41 8.41 0 0 0-1.986-2.266c-.663-.648-1.393-.972-2.055-.972-1.524 0-3.047.648-4.44 2.008-3.095 2.792-4.892 6.7-4.97 10.818a9.086 9.086 0 0 0 2.254 6.281c1.59 1.75 3.91 2.72 7.156 2.72a19.485 19.485 0 0 0 10.137-3.495 38.028 38.028 0 0 0 10.402-10.041c1.987-2.526 3.977-5.182 5.766-7.967l5.564-8.031c.662-.712 1.126-.972 1.457-.713.405.437.68.976.795 1.555.663 2.332 1.327 5.182 1.989 8.29a604.85 604.85 0 0 0 1.722 8.42 19.81 19.81 0 0 0 4.639 8.163c2.451 2.462 5.433 3.822 8.945 3.822a18.183 18.183 0 0 0 9.608-2.852 33.902 33.902 0 0 0 8.281-6.996 39.41 39.41 0 0 0 5.5-8.42c1.325-2.85 1.986-5.182 1.986-7.125 0-.972-.065-1.748-.463-2.136-.33-.453-.729-.649-1.193-.649-.928 0-1.723.454-2.584 1.49a33.124 33.124 0 0 1-6.36 8.162c-1.988 1.684-3.512 2.59-4.505 2.59-.994 0-1.657-.452-2.32-1.1-.662-.647-1.325-2.009-1.987-4.017l-5.3-19.107c-.598-1.62-.663-2.982-.2-4.018l1.326-3.236c1.987-2.915 3.775-5.637 5.631-8.227 1.855-2.462 3.711-4.6 5.5-6.347 2.584-2.591 4.638-4.211 6.162-4.924 1.524-.583 2.848-.907 3.842-.907 1.391 0 2.452.26 3.049.907.662.777 1.325 1.62 1.789 2.525.463.777.993 1.556 1.59 2.139.596.518 1.59.777 3.18.777 1.126 0 2.518-.519 3.976-1.75 1.59-1.166 2.915-2.72 3.975-4.533a12.096 12.096 0 0 0 1.656-6.024c0-1.943-1.127-4.08-3.313-6.476-2.104-2.4-5.18-3.776-8.414-3.758a17.472 17.472 0 0 0-9.277 3.303 45.938 45.938 0 0 0-10.336 11.012l-11.264 15.416c-1.325 1.62-2.186 1.685-2.517.195l-5.633-17.295a27.763 27.763 0 0 0-4.307-9.068c-1.677-2.326-4.443-3.667-7.353-3.563z"/>
    <style>@media(prefers-color-scheme:dark){ #c{fill:#fff;}#sf{fill:#000;} }</style>
</svg>
