<svg xmlns="http://www.w3.org/2000/svg" xml:space="preserve" width="1em" height="1em" stroke="#fff" stroke-linecap="round" viewBox="0 0 24 24"><path fill="none" stroke-width="1.75" d="M8 2v4m8-4v4m5 4.475V6c0-1.097-.903-2-2-2H5c-1.097 0-2 .903-2 2v14c0 1.097.903 2 2 2h4M3 10h18"/><path fill="none" stroke-width="1.5" d="M15.357 18.057a2.502 2.502 0 0 0 3.77.27l1.5-1.5a2.5 2.5 0 0 0 .702-1.737c0-1.371-1.129-2.5-2.5-2.5a2.5 2.5 0 0 0-1.737.702l-.86.855"/><path fill="none" stroke-width="1.5" d="M17.357 17.057a2.502 2.502 0 0 0-3.77-.27l-1.5 1.5a2.5 2.5 0 0 0-.702 1.737c0 1.371 1.129 2.5 2.5 2.5a2.5 2.5 0 0 0 1.737-.702l.855-.855"/></svg>
