<svg width="48" height="48" viewBox="0 0 48 48" fill="none" xmlns="http://www.w3.org/2000/svg">
<path d="M9 5.5C9 4.11929 10.1193 3 11.5 3H29L39 13V42.5C39 43.8807 37.8807 45 36.5 45H11.5C10.1193 45 9 43.8807 9 42.5V5.5Z" fill="white" fill-opacity="0.4"/>
<path d="M29 3L39 13H31.5C30.1193 13 29 11.8807 29 10.5V3Z" fill="white"/>
<rect x="14" y="19" width="20" height="2.6" rx="1.3" fill="white"/>
<rect x="14" y="25" width="20" height="2.6" rx="1.3" fill="white"/>
<rect x="14" y="31" width="12" height="2.6" rx="1.3" fill="white"/>
<path d="M41.0303 21.4697C40.2417 20.6811 38.9627 20.6811 38.1741 21.4697L29.7322 29.9116C29.5527 30.0911 29.4243 30.3151 29.36 30.5606L28.3417 34.4486C28.1859 35.0438 28.7269 35.5848 29.3221 35.429L33.2101 34.4107C33.4556 34.3464 33.6796 34.218 33.8591 34.0385L42.301 25.5966C43.0896 24.808 43.0896 23.529 42.301 22.7404L41.0303 21.4697Z" fill="white"/>
</svg>
