<svg xmlns="http://www.w3.org/2000/svg" fill="none" viewBox="0 0 48 48">
    <path fill="#fff" fill-rule="evenodd" d="M11.998-.004a4.8 4.8 0 0 0-4.8 4.801v38.406a4.8 4.8 0 0 0 4.8 4.8h24.004a4.8 4.8 0 0 0 4.8-4.8V4.797a4.8 4.8 0 0 0-4.8-4.8zm-1.2 4.801a1.2 1.2 0 0 1 1.2-1.2h24.004a1.2 1.2 0 0 1 1.2 1.2v38.406a1.2 1.2 0 0 1-1.2 1.2H11.998a1.2 1.2 0 0 1-1.2-1.2z" clip-rule="evenodd" style="stroke-width:1.20018"/>
    <rect width="11.623" height="3.487" x="18.188" y="5.403" fill="#fff" rx="1.743" style="stroke-width:1.16231"/>
    <circle cx="24" cy="39.11" r="2.906" fill="#fff" style="stroke-width:1.16231"/>
</svg>
